<?xml version="1.0" encoding="UTF-8"?>
<svg id="Calque_1" data-name="Calque 1" xmlns="http://www.w3.org/2000/svg" viewBox="0 0 222.22 269.11">
  <defs>
    <style>
      .cls-1 {
        font-family: SegoeUI, 'Segoe UI';
        font-size: 8px;
      }

      .cls-1, .cls-2 {
        fill: #1d1d1b;
      }

      .cls-3 {
        fill: #f18512;
      }

      .cls-3, .cls-4, .cls-5, .cls-6, .cls-7, .cls-8, .cls-9, .cls-10, .cls-11, .cls-12, .cls-13 {
        stroke-width: 0px;
      }

      .cls-4 {
        fill: #fcbf0b;
      }

      .cls-5 {
        fill: #0f8760;
      }

      .cls-14 {
        letter-spacing: -.05em;
      }

      .cls-6 {
        fill: #93c353;
      }

      .cls-7 {
        fill: #e52421;
      }

      .cls-8 {
        fill: #00a879;
      }

      .cls-9 {
        fill: #a9d08e;
      }

      .cls-10 {
        fill: #70ad47;
      }

      .cls-11 {
        fill: #e2efd9;
      }

      .cls-12 {
        fill: #f28e7f;
      }

      .cls-13 {
        fill: #a6a5a5;
      }

      .cls-2 {
        font-family: SegoeUI-Bold, 'Segoe UI';
        font-size: 10px;
        font-weight: 700;
      }
    </style>
  </defs>
  <circle class="cls-11" cx="24.06" cy="141.62" r="4.23"/>
  <text class="cls-2" transform="translate(19.78 37.4)"><tspan x="0" y="0">Acquisition</tspan></text>
  <circle class="cls-5" cx="24.06" cy="49.34" r="4.23"/>
  <circle class="cls-8" cx="24.06" cy="67.8" r="4.23"/>
  <circle class="cls-10" cx="24.06" cy="86.25" r="4.23"/>
  <circle class="cls-6" cx="24.06" cy="104.71" r="4.23"/>
  <circle class="cls-9" cx="24.06" cy="123.17" r="4.23"/>
  <circle class="cls-12" cx="24.06" cy="160.08" r="4.23"/>
  <circle class="cls-3" cx="24.06" cy="178.54" r="4.23"/>
  <circle class="cls-7" cx="24.06" cy="197" r="4.23"/>
  <circle class="cls-4" cx="24.06" cy="215.45" r="4.23"/>
  <circle class="cls-13" cx="24.06" cy="233.91" r="4.23"/>
  <text class="cls-1" transform="translate(37.33 51.48)"><tspan x="0" y="0">Prise de possession suite à une expropriation</tspan><tspan x="0" y="18.6">Prise de possession</tspan><tspan x="0" y="37.2">PUV signée</tspan><tspan x="0" y="55.8">PUV envoyée</tspan><tspan x="0" y="74.4">PUV à régier</tspan><tspan x="0" y="93">Négociation en cours</tspan><tspan x="0" y="111.6">Piquetage</tspan><tspan x="0" y="130.2">Négociation non débutée</tspan><tspan x="0" y="148.8">Procédure judiciaire</tspan><tspan x="0" y="167.4">SM</tspan><tspan class="cls-14" x="11.43" y="167.4">T</tspan><tspan x="15.25" y="167.4">C</tspan><tspan x="0" y="186">Autre</tspan></text>
</svg>